<svg width="1600" height="900" viewBox="0 0 1600 900" fill="none" xmlns="http://www.w3.org/2000/svg">
  <defs>
    <linearGradient id="bg" x1="0" y1="0" x2="1600" y2="900" gradientUnits="userSpaceOnUse">
      <stop stop-color="#061831"/>
      <stop offset="0.52" stop-color="#0B2B6B"/>
      <stop offset="1" stop-color="#14B8A6"/>
    </linearGradient>
    <linearGradient id="glass" x1="210" y1="160" x2="1410" y2="790" gradientUnits="userSpaceOnUse">
      <stop stop-color="white" stop-opacity="0.20"/>
      <stop offset="1" stop-color="white" stop-opacity="0.07"/>
    </linearGradient>
    <filter id="blur" x="-50" y="-50" width="1700" height="1000" filterUnits="userSpaceOnUse" color-interpolation-filters="sRGB">
      <feGaussianBlur stdDeviation="28"/>
    </filter>
  </defs>

  <rect width="1600" height="900" fill="url(#bg)"/>

  <g filter="url(#blur)" opacity="0.9">
    <circle cx="360" cy="260" r="220" fill="#22C55E" fill-opacity="0.22"/>
    <circle cx="1250" cy="230" r="260" fill="#38BDF8" fill-opacity="0.22"/>
    <circle cx="1180" cy="740" r="300" fill="#F59E0B" fill-opacity="0.18"/>
  </g>

  <rect x="170" y="140" width="1260" height="620" rx="44" fill="url(#glass)" stroke="white" stroke-opacity="0.16"/>

  <!-- Map-like silhouette (abstract Africa) -->
  <g transform="translate(280 220)" opacity="0.92">
    <path d="M510 40c64 16 120 74 120 140 0 56-26 86-40 124-16 44-6 88-40 128-34 40-92 46-140 74-46 28-66 88-124 94-58 6-88-52-136-74-52-24-124-6-156-58-34-56 30-104 42-156 10-44-30-86-6-130 28-52 98-44 138-72 44-30 60-92 118-106 56-14 86 28 124 36 40 10 62-18 100 0Z"
      fill="white" fill-opacity="0.10" stroke="white" stroke-opacity="0.22" stroke-width="3"/>
    <path d="M360 160c40-24 98-10 132 18 34 30 24 74-8 98-36 26-96 16-130-14-36-32-36-76 6-102Z"
      fill="#38BDF8" fill-opacity="0.22"/>
    <circle cx="470" cy="300" r="10" fill="white" fill-opacity="0.78"/>
    <circle cx="402" cy="380" r="8" fill="white" fill-opacity="0.65"/>
    <circle cx="528" cy="430" r="8" fill="white" fill-opacity="0.65"/>
  </g>

  <!-- Phone + payment icon -->
  <g transform="translate(980 250)" opacity="0.95">
    <rect x="0" y="0" width="280" height="520" rx="48" fill="white" fill-opacity="0.10" stroke="white" stroke-opacity="0.20"/>
    <rect x="26" y="70" width="228" height="320" rx="28" fill="white" fill-opacity="0.10"/>
    <circle cx="140" cy="430" r="16" fill="white" fill-opacity="0.28"/>
    <rect x="54" y="112" width="172" height="16" rx="8" fill="white" fill-opacity="0.22"/>
    <rect x="54" y="146" width="132" height="16" rx="8" fill="white" fill-opacity="0.18"/>
    <g transform="translate(72 210)">
      <rect x="0" y="0" width="196" height="120" rx="22" fill="white" fill-opacity="0.18"/>
      <path d="M32 62h132" stroke="white" stroke-opacity="0.65" stroke-width="10" stroke-linecap="round"/>
      <circle cx="52" cy="62" r="18" fill="#22C55E" fill-opacity="0.55"/>
      <circle cx="144" cy="62" r="18" fill="#F59E0B" fill-opacity="0.55"/>
    </g>
  </g>
</svg>

